<?xml version="1.0" standalone="no"?>
<!DOCTYPE svg PUBLIC "-//W3C//DTD SVG 20010904//EN"
 "http://www.w3.org/TR/2001/REC-SVG-20010904/DTD/svg10.dtd">
<svg version="1.0" xmlns="http://www.w3.org/2000/svg"
 width="1250.000000pt" height="1250.000000pt" viewBox="0 0 1250.000000 1250.000000"
 preserveAspectRatio="xMidYMid meet">
<metadata>
Created by potrace 1.14, written by Peter Selinger 2001-2017
</metadata>
<g transform="translate(0.000000,1250.000000) scale(0.100000,-0.100000)"
fill="#000000" stroke="none">
<path d="M6870 7200 c-138 -24 -262 -116 -316 -235 -33 -71 -54 -187 -54 -293
0 -185 40 -302 134 -390 l56 -54 -39 -28 c-106 -77 -151 -216 -151 -466 0
-235 38 -364 138 -460 90 -88 194 -124 360 -124 169 0 284 41 371 131 88 92
120 190 127 399 7 174 -11 313 -50 393 -26 55 -86 126 -120 144 -18 10 -16 15
35 61 31 28 67 74 82 105 57 111 71 340 32 491 -45 173 -162 285 -334 322 -70
15 -197 17 -271 4z m229 -308 c14 -10 36 -38 49 -62 20 -40 22 -59 22 -190 0
-131 -2 -150 -22 -190 -32 -61 -74 -82 -160 -78 -78 4 -111 23 -142 83 -26 50
-35 240 -16 321 15 63 59 120 103 134 46 14 136 4 166 -18z m-12 -839 c24 -12
46 -35 60 -63 22 -40 23 -55 23 -229 0 -174 -2 -190 -22 -231 -33 -64 -76 -90
-151 -90 -78 0 -122 26 -150 89 -18 39 -22 71 -25 202 -6 225 20 300 113 334
48 18 102 14 152 -12z"/>
<path d="M2935 7178 c-3 -7 -4 -461 -3 -1008 l3 -995 412 -3 412 -2 3 -133 3
-132 155 0 155 0 3 269 c2 209 -1 271 -10 278 -7 4 -39 8 -70 8 l-58 0 -2 863
-3 862 -160 0 -160 0 -5 -860 -5 -860 -175 0 -175 0 -3 863 -2 862 -155 0
c-115 0 -157 -3 -160 -12z"/>
<path d="M4245 7168 c-3 -13 -4 -466 -3 -1008 l3 -985 433 -3 432 -2 0 145 0
145 -272 2 -273 3 0 290 0 290 215 5 215 5 0 140 0 140 -215 5 -215 5 -3 269
c-2 209 1 271 10 278 7 4 131 8 276 8 l263 0 -3 143 -3 142 -427 3 -428 2 -5
-22z"/>
<path d="M5260 7178 c0 -7 7 -33 16 -58 74 -208 304 -898 304 -910 0 -17 -36
-129 -114 -355 -169 -492 -226 -661 -226 -673 0 -10 33 -12 147 -10 l147 3
125 383 c69 210 129 382 133 382 4 0 55 -147 113 -327 59 -181 115 -353 125
-383 l18 -55 166 -3 c132 -2 166 0 166 11 0 7 -10 40 -21 72 -27 76 -251 731
-290 847 -16 48 -29 96 -29 107 0 10 72 232 160 492 88 261 160 477 160 482 0
4 -66 6 -147 5 l-147 -3 -116 -353 c-64 -194 -121 -353 -126 -353 -5 -1 -44
107 -86 238 -42 131 -94 290 -115 353 l-38 115 -162 3 c-127 2 -163 0 -163
-10z"/>
<path d="M7725 7168 c-2 -13 -9 -129 -15 -258 -5 -129 -14 -327 -20 -440 -5
-113 -11 -261 -12 -330 l-3 -125 145 0 145 0 7 77 c12 132 54 178 163 178 80
0 117 -23 141 -87 17 -43 19 -79 19 -333 0 -265 -1 -288 -20 -324 -28 -55 -64
-78 -128 -84 -67 -5 -113 14 -146 63 -22 32 -25 50 -30 173 l-6 137 -145 0
-145 0 -3 -115 c-2 -63 2 -146 8 -185 30 -178 143 -308 305 -351 66 -18 257
-18 315 0 178 54 276 173 309 377 16 99 14 595 -3 701 -35 215 -148 321 -341
320 -98 0 -153 -19 -218 -73 -26 -23 -50 -39 -52 -37 -2 2 1 103 8 223 l12
220 275 5 275 5 0 140 0 140 -417 3 -418 2 -5 -22z"/>
</g>
</svg>
